<svg width="20" height="20" viewBox="0 0 20 20" fill="none" xmlns="http://www.w3.org/2000/svg">
    <circle cx="10" cy="10" r="9.5" stroke="white"/>
    <path d="M9.9625 5.445C10.7625 5.445 11.3875 5.625 11.8375 5.985C12.2975 6.335 12.5275 6.835 12.5275 7.485C12.5275 8.065 12.3575 8.6 12.0175 9.09C11.6875 9.57 11.1475 10.05 10.3975 10.53V12.18H8.8075V9.93C9.5475 9.53 10.0675 9.17 10.3675 8.85C10.6775 8.53 10.8325 8.21 10.8325 7.89C10.8325 7.6 10.7375 7.385 10.5475 7.245C10.3575 7.095 10.0725 7.02 9.6925 7.02C9.3525 7.02 8.9725 7.06 8.5525 7.14C8.1325 7.21 7.7775 7.3 7.4875 7.41V5.865C7.8675 5.725 8.2575 5.62 8.6575 5.55C9.0575 5.48 9.4925 5.445 9.9625 5.445ZM10.5025 13.38V15H8.6875V13.38H10.5025Z" fill="white"/>
</svg>
